<?xml version="1.0" encoding="utf-8"?>
<!-- Generator: Adobe Illustrator 19.2.0, SVG Export Plug-In . SVG Version: 6.00 Build 0)  -->
<svg version="1.1" id="Layer_1" xmlns="http://www.w3.org/2000/svg" xmlns:xlink="http://www.w3.org/1999/xlink" x="0px" y="0px"
	 viewBox="0 0 512 512" style="enable-background:new 0 0 512 512;" xml:space="preserve">
<style type="text/css">
	.st0{fill:#238CAD;}
</style>
<path class="st0" d="M491.6,186.9V62.5c0-19.9-16.2-36.1-36.1-36.1H36.1C16.2,26.3,0,42.5,0,62.5V316c0,19.9,16.2,36.1,36.1,36.1
	H155l-13.6,14.6H121c-4.6,0-8.4,3.8-8.4,8.4c0,4.6,3.8,8.4,8.4,8.4h116.7v80.9c0,11.7,9.5,21.2,21.2,21.2h90.2
	c11.7,0,21.2-9.5,21.2-21.2v-17h112.9c15.8,0,28.7-12.9,28.7-28.8V214.4C512,201.5,503.4,190.5,491.6,186.9L491.6,186.9z
	 M495.2,214.4v2.3h-193v-2.3c0-6.6,5.4-12,12-12h169C489.9,202.4,495.2,207.8,495.2,214.4z M349.1,285.3h-46.9v-51.8h193v166.1
	H370.3v-93.1C370.3,294.8,360.8,285.3,349.1,285.3L349.1,285.3z M353.6,317.5h-99v-11c0-2.4,2-4.4,4.4-4.4h90.2c2.4,0,4.4,2,4.4,4.4
	L353.6,317.5L353.6,317.5z M474.9,70.9v114.8H314.2c-15.9,0-28.8,12.9-28.8,28.8v70.9h-26.5c-11.7,0-21.2,9.5-21.2,21.2h-221V70.9
	L474.9,70.9L474.9,70.9z M254.5,334.3h99v102.4h-99V334.3z M36.1,43.1h419.4c7.7,0,14.3,4.5,17.4,11H18.7
	C21.9,47.6,28.5,43.1,36.1,43.1L36.1,43.1z M18.2,323.3h219.5v12.1H36.1C28,335.3,21.1,330.3,18.2,323.3z M164.3,366.8l13.6-14.6
	h59.9v14.6H164.3z M349.1,468.9h-90.2c-2.4,0-4.4-2-4.4-4.4v-11h99v11C353.6,466.9,351.6,468.9,349.1,468.9z M483.3,430.6H370.3
	v-14.3h124.9v2.3C495.2,425.3,489.9,430.6,483.3,430.6z"/>
</svg>
