<?xml version="1.0" encoding="utf-8"?>
<!-- Generator: Adobe Illustrator 19.2.0, SVG Export Plug-In . SVG Version: 6.00 Build 0)  -->
<svg version="1.1" id="Layer_1" xmlns="http://www.w3.org/2000/svg" xmlns:xlink="http://www.w3.org/1999/xlink" x="0px" y="0px"
	 viewBox="0 0 512 512" style="enable-background:new 0 0 512 512;" xml:space="preserve">
<style type="text/css">
	.st0{fill:#238CAD;}
</style>
<g>
	<path class="st0" d="M504.5,32.1h-16H263.5V7.5c0-4.2-3.4-7.5-7.5-7.5s-7.5,3.4-7.5,7.5v24.5H23.5h-16c-4.2,0-7.5,3.4-7.5,7.5
		s3.4,7.5,7.5,7.5H16v305.1c0,13,10.6,23.5,23.5,23.5h102.2l-11.3,38.3c0,0,0,0,0,0l-26,88.3c-1.2,4,1.1,8.2,5.1,9.3
		c0.7,0.2,1.4,0.3,2.1,0.3c3.2,0,6.2-2.1,7.2-5.4l24.3-82.8h225.5l24.3,82.8c1,3.3,4,5.4,7.2,5.4c0.7,0,1.4-0.1,2.1-0.3
		c4-1.2,6.3-5.3,5.1-9.3l-26-88.3c0,0,0,0,0,0l-11.3-38.3h102.2c13,0,23.5-10.6,23.5-23.5V47.1h8.5c4.2,0,7.5-3.4,7.5-7.5
		S508.6,32.1,504.5,32.1L504.5,32.1z M364.3,408.8H147.7l9.7-33.1h197.2L364.3,408.8L364.3,408.8z M480.9,352.2
		c0,4.7-3.8,8.5-8.5,8.5H360.3c0,0,0,0,0,0H151.7c0,0,0,0,0,0H39.6c-4.7,0-8.5-3.8-8.5-8.5V47.1h449.9L480.9,352.2L480.9,352.2z"/>
	<path class="st0" d="M175.2,205.9l-92.9,92.9c-2.9,2.9-2.9,7.7,0,10.6c1.5,1.5,3.4,2.2,5.3,2.2s3.8-0.7,5.3-2.2l92.9-92.9
		c3.3-3.3,8.7-3.3,12,0l49.5,49.5c4.4,4.4,10.4,6.9,16.6,6.9s12.2-2.4,16.6-6.9l136.1-136.1v54c0,4.2,3.4,7.5,7.5,7.5
		s7.5-3.4,7.5-7.5v-72.1c0-0.2,0-0.5,0-0.7c0-0.1,0-0.2,0-0.3c0-0.1,0-0.3-0.1-0.4c0-0.1-0.1-0.2-0.1-0.4c0-0.1-0.1-0.2-0.1-0.4
		c0-0.1-0.1-0.2-0.1-0.3c0-0.1-0.1-0.2-0.1-0.3c0-0.1-0.1-0.2-0.1-0.3c-0.1-0.1-0.1-0.2-0.2-0.3c-0.1-0.1-0.1-0.2-0.2-0.3
		c-0.1-0.1-0.1-0.2-0.2-0.3c-0.1-0.1-0.2-0.2-0.2-0.3c-0.1-0.1-0.1-0.2-0.2-0.3c-0.3-0.4-0.7-0.7-1.1-1c-0.1-0.1-0.2-0.1-0.3-0.2
		c-0.1-0.1-0.2-0.2-0.3-0.2c-0.1-0.1-0.2-0.1-0.3-0.2c-0.1-0.1-0.2-0.1-0.3-0.2c-0.1-0.1-0.2-0.1-0.3-0.2c-0.1-0.1-0.2-0.1-0.3-0.2
		c-0.1,0-0.2-0.1-0.3-0.1c-0.1,0-0.2-0.1-0.4-0.1c-0.1,0-0.2-0.1-0.3-0.1c-0.1,0-0.3-0.1-0.4-0.1c-0.1,0-0.2,0-0.4-0.1
		c-0.1,0-0.2,0-0.4-0.1c-0.2,0-0.4,0-0.6,0c0,0-0.1,0-0.1,0h-72.1c-4.2,0-7.5,3.4-7.5,7.5s3.4,7.5,7.5,7.5h54L270,255.4
		c-1.6,1.6-3.7,2.5-6,2.5s-4.4-0.9-6-2.5l-49.5-49.5C199.3,196.7,184.4,196.7,175.2,205.9L175.2,205.9z"/>
</g>
</svg>
