<?xml version="1.0" encoding="utf-8"?>
<!-- Generator: Adobe Illustrator 19.2.0, SVG Export Plug-In . SVG Version: 6.00 Build 0)  -->
<svg version="1.1" id="Layer_1" xmlns="http://www.w3.org/2000/svg" xmlns:xlink="http://www.w3.org/1999/xlink" x="0px" y="0px"
	 viewBox="0 0 316.6 97.3" style="enable-background:new 0 0 316.6 97.3;" xml:space="preserve">
<style type="text/css">
	.st0{fill:#707879;}
</style>
<title>logo</title>
<path class="st0" d="M136,31.5c3.4,0,6.1-2.7,6.1-6.1s-2.7-6.1-6.1-6.1h-35.8c-1.6,0-3.2,0.6-4.4,1.7c-1.2,1.1-1.8,2.7-1.8,4.3v65.8
	c0,1.6,0.6,3.2,1.8,4.3c1.1,1.2,2.7,1.8,4.4,1.8H136c3.3,0,6.1-2.7,6.1-6c0,0,0-0.1,0-0.1c0-1.6-0.7-3.2-1.8-4.4
	c-1.1-1.1-2.7-1.8-4.3-1.8h-29.7V64.3h6.8c3.3,0,6.1-2.7,6.1-6c0,0,0-0.1,0-0.1c0-1.6-0.6-3.2-1.8-4.4c-1.1-1.2-2.7-1.8-4.3-1.8
	h-6.8V31.5H136z"/>
<path class="st0" d="M218.1,19c-3.3,0-6.1,2.7-6.1,6c0,0,0,0.1,0,0.1v44.7c-5.4-10.3-14.4-26.2-26.7-47.3c-1-1.9-2.9-3.1-5-3.1
	c-0.6,0-1.3,0.1-1.9,0.2c-2.8,0.6-4.7,3.1-4.5,5.9v65.7c0,1.6,0.6,3.2,1.8,4.3c2.3,2.4,6.1,2.4,8.5,0.1c0,0,0.1-0.1,0.1-0.1l0,0
	c1.2-1.1,1.8-2.7,1.8-4.3V46.5c5.5,10.6,14.4,26.6,26.7,47.8c0.9,1.8,2.8,3,4.9,3c0.6,0,1.3-0.1,1.9-0.2c2.8-0.6,4.7-3.1,4.5-5.9
	V25.1c0-1.6-0.6-3.2-1.8-4.3C221.2,19.6,219.7,19,218.1,19z"/>
<path class="st0" d="M27.2,54.6c1.1,1.1,2.7,1.8,4.3,1.8h0.1c1.6,0,3.2-0.7,4.3-1.8l25.5-25.4c2.4-2.4,2.4-6.2,0-8.6s-6.2-2.4-8.6,0
	l0,0L31.6,41.7L10.4,20.6c-2.3-2.4-6.1-2.4-8.5-0.1c0,0-0.1,0.1-0.1,0.1c-2.4,2.3-2.4,6.1-0.1,8.5c0,0,0.1,0.1,0.1,0.1L27.2,54.6z"
	/>
<path class="st0" d="M36,61.5c-1.1-1.2-2.7-1.8-4.4-1.8h-0.1c-1.6,0-3.2,0.6-4.3,1.8L1.8,86.9c-2.4,2.3-2.4,6.1-0.1,8.5
	c0,0,0.1,0.1,0.1,0.1c2.3,2.4,6.1,2.4,8.5,0.1c0,0,0.1-0.1,0.1-0.1l0,0l21.2-21.2l21.2,21.2c2.4,2.4,6.2,2.4,8.6,0
	c2.4-2.4,2.4-6.2,0-8.6L36,61.5z"/>
<path class="st0" d="M286.5,18.9c-16.6,0-30.1,13.5-30.1,30.1v18.2c0,16.6,13.5,30.1,30.1,30.1s30.1-13.5,30.1-30.1V49
	C316.6,32.4,303.1,18.9,286.5,18.9z M304.3,48.2V68c0.2,9.9-7.6,18-17.5,18.2c-9.9,0.2-18-7.6-18.2-17.5l0,0V48.2
	c0-9.9,8-17.9,17.9-17.9S304.3,38.3,304.3,48.2C304.3,48.2,304.3,48.2,304.3,48.2z"/>
<path class="st0" d="M279,9h15.1c2.5,0,4.5-2,4.5-4.5s-2-4.5-4.5-4.5H279c-2.5,0-4.5,2-4.5,4.5S276.5,9,279,9z"/>
</svg>
