<svg id="Layer_1" data-name="Layer 1" xmlns="http://www.w3.org/2000/svg" viewBox="0 0 316.6 97.3"><defs><style>.cls-1{fill:#fff;}</style></defs><title>logo</title><path class="cls-1" d="M136,31.5a6.1,6.1,0,1,0,0-12.2H100.2A6.56,6.56,0,0,0,95.8,21,5.82,5.82,0,0,0,94,25.3V91.1a5.82,5.82,0,0,0,1.8,4.3,5.88,5.88,0,0,0,4.4,1.8H136a6.06,6.06,0,0,0,6.1-6.1,6.47,6.47,0,0,0-1.8-4.4,6.22,6.22,0,0,0-4.3-1.8H106.3V64.3h6.8a6.06,6.06,0,0,0,6.1-6.1,6.2,6.2,0,0,0-1.8-4.4,5.82,5.82,0,0,0-4.3-1.8h-6.8V31.5H136Z" transform="translate(0)"/><path class="cls-1" d="M218.1,19a6.06,6.06,0,0,0-6.1,6.1V69.8c-5.4-10.3-14.4-26.2-26.7-47.3a5.7,5.7,0,0,0-5-3.1,12.25,12.25,0,0,0-1.9.2,5.63,5.63,0,0,0-4.5,5.9V91.2a5.82,5.82,0,0,0,1.8,4.3,6,6,0,0,0,8.6,0h0a5.82,5.82,0,0,0,1.8-4.3V46.5c5.5,10.6,14.4,26.6,26.7,47.8a5.53,5.53,0,0,0,4.9,3,12.25,12.25,0,0,0,1.9-.2,5.63,5.63,0,0,0,4.5-5.9V25.1a5.82,5.82,0,0,0-1.8-4.3A5.45,5.45,0,0,0,218.1,19Z" transform="translate(0)"/><path class="cls-1" d="M27.2,54.6a6.22,6.22,0,0,0,4.3,1.8h0.1a6.22,6.22,0,0,0,4.3-1.8L61.4,29.2a6.08,6.08,0,0,0-8.6-8.6L31.6,41.7,10.4,20.6a6,6,0,0,0-8.6,0,6,6,0,0,0,0,8.6Z" transform="translate(0)"/><path class="cls-1" d="M36,61.5a5.88,5.88,0,0,0-4.4-1.8H31.5a5.82,5.82,0,0,0-4.3,1.8L1.8,86.9a6,6,0,0,0,0,8.6,6,6,0,0,0,8.6,0h0L31.6,74.3,52.8,95.5a6.08,6.08,0,0,0,8.6-8.6Z" transform="translate(0)"/><path class="cls-1" d="M286.5,18.9A30.13,30.13,0,0,0,256.4,49V67.2a30.1,30.1,0,0,0,60.2,0V49A30.13,30.13,0,0,0,286.5,18.9Zm17.8,29.3V68a17.85,17.85,0,0,1-35.7.7V48.2a17.85,17.85,0,1,1,35.7,0h0Z" transform="translate(0)"/><path class="cls-1" d="M279,9h15.1a4.5,4.5,0,0,0,0-9H279A4.5,4.5,0,0,0,279,9Z" transform="translate(0)"/></svg>