<?xml version="1.0" encoding="utf-8"?>
<!-- Generator: Adobe Illustrator 19.2.0, SVG Export Plug-In . SVG Version: 6.00 Build 0)  -->
<svg version="1.1" id="Layer_1" xmlns="http://www.w3.org/2000/svg" xmlns:xlink="http://www.w3.org/1999/xlink" x="0px" y="0px"
	 viewBox="0 0 93.1 115.8" style="enable-background:new 0 0 93.1 115.8;" xml:space="preserve">
<style type="text/css">
	.st0{opacity:0.2;fill:none;stroke:#22B47C;stroke-miterlimit:10;}
	.st1{opacity:0.2;fill:none;stroke:#1F69C2;stroke-miterlimit:10;}
</style>
<title>xeno-x</title>
<path class="st0" d="M40.1,52.8c1.7,1.7,4,2.6,6.4,2.6h0.2c2.4,0,4.6-1,6.3-2.6l37.5-37.5c3.5-3.5,3.5-9.2,0-12.7
	c-3.5-3.5-9.2-3.5-12.7,0L46.6,33.8L15.4,2.6c-3.5-3.5-9.2-3.5-12.7,0s-3.5,9.2,0,12.7L40.1,52.8z"/>
<path class="st1" d="M53,62.9c-1.7-1.7-4-2.7-6.4-2.7h-0.1c-2.4,0-4.7,0.9-6.4,2.6L2.6,100.4c-3.5,3.5-3.5,9.2,0,12.7
	s9.2,3.5,12.7,0l0,0l31.2-31.2l31.2,31.2c3.5,3.5,9.2,3.5,12.7,0s3.5-9.2,0-12.7L53,62.9z"/>
</svg>
